PathFileType	4	(X/Y/Z)	../Python\walking\Walking16\task.trc
DataRate	CameraRate	NumFrames	NumMarkers	Units	OrigDataRate	OrigDataStartFrame	OrigNumFrames
200.000000	200.000000	6	30	mm	200.000000	339	452
Frame#	Time	C7			RBAK			CLAV			STRN			RASI			LASI			PE01			RTH1			RTH2			RTH3			RD5M			RTOE			LTH2			LTH3			LTB2			LTB3			LHEE			LTOE			LD5M			LTB1			RTB2			RHEE			RTB3			RTB1			LTH1			LPSI			PE03			PE02			RPSI			T10			
		X1	Y1	Z1	X2	Y2	Z2	X3	Y3	Z3	X4	Y4	Z4	X5	Y5	Z5	X6	Y6	Z6	X7	Y7	Z7	X8	Y8	Z8	X9	Y9	Z9	X10	Y10	Z10	X11	Y11	Z11	X12	Y12	Z12	X13	Y13	Z13	X14	Y14	Z14	X15	Y15	Z15	X16	Y16	Z16	X17	Y17	Z17	X18	Y18	Z18	X19	Y19	Z19	X20	Y20	Z20	X21	Y21	Z21	X22	Y22	Z22	X23	Y23	Z23	X24	Y24	Z24	X25	Y25	Z25	X26	Y26	Z26	X27	Y27	Z27	X28	Y28	Z28	X29	Y29	Z29	X30	Y30	Z30	

340	1.695	756.213806152344	1317.66162109375	111.6086196899415	730.9042968750002	1230.398315429688	239.6561279296876	878.3532104492192	1220.671630859375	93.3940353393555	943.2199707031255	1039.10107421875	107.234489440918	913.557250976563	835.9504394531255	261.8262939453126	918.943481445313	850.3244628906255	34.12085723876955	723.2342529296877	921.572631835938	157.9974212646485	763.953552246094	561.7703857421877	285.3577880859376	757.1729125976565	484.4452209472659	266.8919067382814	799.9414672851567	529.2593383789065	271.5545349121095	492.4709472656252	32.61873245239259	243.2573699951173	523.2026977539065	29.12300491333009	191.6621704101563	956.2284545898442	543.8389892578127	9.189819335937504	1006.181762695313	606.1176757812502	7.474586009979252	1025.478271484375	206.9195709228517	24.12704277038576	1059.023071289063	241.4371948242189	32.99884414672853	1008.531311035157	33.59609222412111	77.43625640869143	1198.302856445313	35.0887794494629	93.50136566162112	1161.788330078125	17.10649871826173	42.50708007812501	1020.550964355469	285.7973022460939	14.05369949340821	577.6165771484377	287.4166564941407	256.9544372558595	397.4057922363284	146.3368530273438	175.2281799316407	580.0515747070315	238.4432830810548	243.6524963378907	638.9193115234377	291.0933837890626	251.1599273681642	958.0449218750005	603.9045410156252	-4.482139110565187	715.936462402344	884.3430175781255	116.2873764038087	706.6899414062502	866.0117797851567	123.9868392944337	703.0354003906252	860.499877929688	174.1277008056641	717.1150512695315	886.7216186523442	202.9821929931642	733.558288574219	1020.144775390625	158.3063659667969	
341	1.7	763.428649902344	1318.512451171875	110.9234619140626	738.1375122070315	1231.364013671875	239.0652923583986	885.6394653320317	1221.660888671875	92.78881835937503	950.6365356445317	1040.070556640625	106.716911315918	920.8646850585942	836.2816772460942	260.9559631347657	926.2964477539067	851.6875000000005	33.39796829223634	730.4697875976565	922.3768920898442	158.0400390625001	773.342895507813	561.2343750000002	284.843231201172	767.5599365234377	483.7062072753909	266.7960205078126	809.7565307617192	529.0281982421877	271.3436889648439	493.7073364257815	34.2536964416504	242.3928222656251	523.8389282226565	29.46479415893556	191.3056945800782	963.2659301757817	544.9302978515627	8.467894554138187	1013.500183105469	607.2402954101565	7.410904884338382	1028.402221679688	207.1260375976564	24.00918579101564	1062.345092773438	241.2696685791017	33.04006576538087	1008.877563476563	33.95616912841798	77.51806640625003	1198.90673828125	34.13063430786134	93.70646667480472	1162.010986328125	16.66300773620606	42.15879440307619	1024.514038085938	286.0465698242189	13.73534774780274	585.7871704101565	289.5084838867189	255.9658966064454	405.748474121094	152.0377502441407	172.5636901855469	587.7322998046877	240.3650665283204	243.4076995849611	647.2911376953127	292.2133178710939	251.314666748047	965.2782592773442	604.990173339844	-4.953824043273928	723.2965087890627	885.4641113281255	115.9147033691407	714.1162719726565	866.9518432617192	123.6810379028321	710.6538085937502	861.0708618164067	173.8161926269532	724.7725830078127	887.2766113281255	202.8217163085939	741.0098266601565	1021.013671875	158.0172271728516	
342	1.705	770.6239624023442	1319.437133789063	110.262077331543	745.3139648437502	1232.380981445313	238.4750061035157	892.9058227539067	1222.72265625	92.23404693603518	958.0256347656255	1041.1103515625	106.2445831298829	928.1002807617192	836.695434570313	260.0867004394532	933.6091308593755	853.0593261718755	32.67886352539064	737.6389160156252	923.2322387695317	158.0194549560547	782.8874511718755	560.684997558594	284.3955993652345	778.1911621093755	482.9389343261721	266.7938232421876	819.7583618164067	528.8132324218752	271.2120666503907	495.1130371093752	36.15726852416994	241.3610382080079	524.6607055664065	29.98541069030763	190.8700561523438	969.9135131835942	545.923034667969	7.782733917236332	1020.549682617188	608.101989746094	7.219317913055423	1031.0009765625	207.2652893066407	23.97384643554688	1065.368530273438	241.0580596923829	33.05218505859376	1009.162048339844	34.23600387573244	77.62650299072268	1199.411865234375	33.38486862182619	93.90830993652347	1162.1796875	16.37821006774903	41.84261322021486	1028.081909179688	286.2078247070314	13.5192632675171	594.364685058594	291.5667419433595	254.9979095458986	414.7467041015627	157.7971954345704	169.8714294433594	595.8172607421877	242.2634277343751	243.2050933837892	656.037536621094	293.3306884765626	251.5311889648439	972.205688476563	605.9583129882815	-5.454845428466799	730.613708496094	886.6336059570317	115.4872207641602	721.4836425781252	867.9293823242192	123.3336944580079	718.2088012695315	861.7011108398442	173.4601287841797	732.3571777343752	887.8881835937505	202.5993957519532	748.4171142578127	1021.947875976563	157.6643981933594	
343	1.71	777.797485351563	1320.432250976563	109.6251831054688	752.429138183594	1233.4443359375	237.8842926025392	900.149780273438	1223.852172851563	91.73147583007815	965.3836059570317	1042.215698242188	105.8203506469727	935.2603149414067	837.190307617188	259.2228393554689	940.8774414062505	854.4308471679692	31.96566581726076	744.7379150390627	924.136840820313	157.931869506836	792.5675659179692	560.1336669921877	284.0173339843751	789.0295410156255	482.1631469726565	266.8801879882814	829.9199829101567	528.623474121094	271.1600952148439	496.7377929687502	38.3621292114258	240.1553039550782	525.7252197265627	30.70859527587892	190.3507995605469	976.146362304688	546.809997558594	7.132853507995609	1027.296264648438	608.6909790039065	6.921755313873295	1033.28759765625	207.3516998291017	24.00697898864748	1068.1005859375	240.8104400634767	33.03380584716798	1009.386596679688	34.44235610961915	77.75473785400393	1199.8251953125	32.82185745239259	94.10659790039065	1162.301513671875	16.22116088867188	41.56734848022462	1031.274291992188	286.2994995117189	13.39371967315675	603.3563232421877	293.575653076172	254.0620880126954	424.3843994140627	163.5970153808594	167.1969604492188	604.3123168945315	244.124481201172	243.0416564941407	665.1621704101565	294.4350891113282	251.8020477294923	978.812377929688	606.8048095703127	-5.98582696914673	737.8843994140627	887.8482055664067	115.0036239624024	728.7873535156252	868.9428710937505	122.9415588378907	725.6926879882815	862.3903808593755	173.0563659667969	739.860290527344	888.5556640625005	202.3114013671876	755.7764282226565	1022.944213867188	157.2462463378907	
344	1.715	784.9470825195317	1321.493896484375	109.0134201049805	759.4793090820315	1234.549560546875	237.2921752929689	907.3688964843755	1225.044799804688	91.28247070312503	972.7070312500005	1043.381958007813	105.4466018676758	942.341918945313	837.7646484375005	258.3686523437501	948.0976562500005	855.793579101563	31.26032447814943	751.763854980469	925.088989257813	157.7745208740235	802.3625488281255	559.5942993164065	283.7090759277345	800.035766601563	481.4023437500002	267.0474853515626	840.2128295898442	528.4707641601565	271.1868591308595	498.641052246094	40.89193344116212	238.7772674560548	527.097839355469	31.65185737609865	189.7465972900391	981.948364257813	547.587341308594	6.515497684478763	1033.708251953125	609.007263183594	6.534610748291019	1035.281372070313	207.3996887207032	24.09155082702638	1070.553588867188	240.5357818603517	32.9824676513672	1009.5546875	34.58377838134767	77.89539337158206	1200.154052734375	32.41218185424806	94.29850006103518	1162.3837890625	16.16225624084473	41.33749008178712	1034.117553710938	286.3398437500001	13.34157943725587	612.7659301757815	295.5209960937501	253.1694488525392	434.6365051269534	169.4156341552735	164.582748413086	613.2208251953127	245.9358520507814	242.9122467041017	674.666442871094	295.5173645019532	252.1174316406251	985.0866699218755	607.529235839844	-6.547389984130863	745.1051025390627	889.1047973632817	114.4634399414063	736.0233154296877	869.991088867188	122.5021896362305	733.098571777344	863.138549804688	172.6027069091797	747.2742919921877	889.2783813476567	201.9549255371095	763.0842285156252	1023.999206542969	156.761947631836	
345	1.72	792.0708007812505	1322.618408203125	108.4273147583008	766.4610595703127	1235.692138671875	236.6977691650392	914.5607910156255	1226.295776367188	90.888053894043	979.9926147460942	1044.604614257813	105.125228881836	949.342895507813	838.4165649414067	257.5281066894532	955.2665405273442	857.1398925781255	30.5646438598633	758.714538574219	926.0869140625005	157.5457916259766	812.251098632813	559.082458496094	283.4696655273439	811.1705932617192	480.6823425292971	267.286346435547	850.6083984375005	528.369079589844	271.2901916503907	500.8916320800784	43.75788879394533	237.2379913330079	528.852233886719	32.8246421813965	189.0597381591797	987.3139648437505	548.255310058594	5.927191734313967	1039.759887695313	609.0629882812502	6.067071437835697	1037.00634765625	207.4227142333986	24.20929908752443	1072.744140625	240.2432250976564	32.89462280273439	1009.671264648438	34.66989135742189	78.04114532470706	1200.40673828125	32.12760543823244	94.47965240478518	1162.43359375	16.17417526245118	41.1537437438965	1036.641845703125	286.3454589843751	13.34271621704102	622.5935668945315	297.390838623047	252.3301391601564	445.4691162109377	175.2268066406251	162.0658416748047	622.5433349609377	247.6873931884767	242.8097381591798	684.5493164062502	296.5701599121095	252.4656677246095	991.0212402343755	608.1348876953127	-7.140104293823246	752.2727661132815	890.4003906250005	113.8669967651368	743.1880493164065	871.0730590820317	122.0140457153321	740.4204101562502	863.9454956054692	172.0978393554688	754.5927734375002	890.0556640625005	201.5283203125001	770.337768554688	1025.109497070313	156.2113342285157	
